<?xml version="1.0" encoding="UTF-8" standalone="no"?><svg id="CADFEM" xmlns="http://www.w3.org/2000/svg" viewBox="0 0 623.62 157.26"><defs><style>.cls-1{fill:#00345f;}</style></defs><title>cadfem-logo</title><g id="CADFEM-2" data-name="CADFEM"><path id="M" class="cls-1" d="M596.71,18.91c3.45,6.62,4.55,14.9,4.82,20.14V157.26H570.36V39.05a11.46,11.46,0,0,0-3.44-6.91c-2.21-1.79-7.45-2.88-10.62-.83a10.42,10.42,0,0,0-4.55,7.74V157.26H521.68V39.05a11,11,0,0,0-3.46-6.62,10.2,10.2,0,0,0-10.34-1.38,9.53,9.53,0,0,0-5.24,7.72V157.26H471.32V39.05C470.91,34.9,473,25.4,477,18.91s7.59-10.49,17.65-15.44,30.9-4,41.79,4.27c10.91-8.82,30.07-8.41,41.12-4.27s15.72,8.81,19.17,15.44"/><polygon id="E" class="cls-1" points="453.95 30.77 414.64 30.77 414.64 57.94 453.95 57.94 453.95 88.56 414.64 88.56 414.64 126.64 453.95 126.64 453.95 157.25 383.33 157.25 383.33 0.15 414.64 0.15 453.95 0.15 453.95 30.77"/><polygon id="F" class="cls-1" points="364.98 30.77 326.09 30.77 326.09 57.94 364.98 57.94 364.98 88.56 326.09 88.56 326.09 157.25 294.9 157.25 294.9 0.15 364.98 0.15 364.98 30.77"/><path id="D" class="cls-1" d="M246.08,122.5V36.29c-1.52-6.49-4.42-5.51-18.34-5.38l-.15-.14v95.86c14.08,0,16.69,2.07,18.49-4.13M250.77,3a40.49,40.49,0,0,1,26.06,38v83.7c-1.83,13.52-11.45,25.51-24.28,31.3a30.34,30.34,0,0,1-6.47,1.25H197.53V.14l.14-.14,29.92.14A86.73,86.73,0,0,1,250.77,3"/><path id="A" class="cls-1" d="M175.93,23.06a41.11,41.11,0,0,0-9.87-12.68C159.49,4.22,149.63.6,140.13.23A46.43,46.43,0,0,0,123,3.5c-12.79,5.43-22.29,19.19-23.39,32.24l.37,121h30.69V88.27h19v68.46H180V34.65c-.36-5.07-2.19-6.88-4-11.59M149.26,57.83H130.64s-.37-13,0-17.75,4-8.33,7.3-9.06h2.19a10.46,10.46,0,0,1,6.21,2.54,8.93,8.93,0,0,1,2.92,6.17v18.1"/><path id="C" class="cls-1" d="M73.53,19c7.86,11.58,7.17,23.87,7,38.89H49.94v-6.2c.14-.41,0,6.2,0-8.68,0-10.62-5-12.29-9.24-12.29a8.56,8.56,0,0,0-8,3.73c-1.52,2.07-1.92,7.18-1.92,8.14V115.7c.27,1.92.83,5.24,2.34,7.59a7.31,7.31,0,0,0,4,2.9,9.73,9.73,0,0,0,8.28-1.11c2.61-2.21,4.27-4.82,4.55-7.59v-21H80.69v7.87C80.84,125,81.8,126.9,75,137.81c-7.45,12.41-20.82,19.3-35.45,19.45a41.28,41.28,0,0,1-37-25.81A50.91,50.91,0,0,1,0,114.35V35.45C1.39,22.62,10.77,9.24,23.32,3.86c12.14-5.24,29-4.28,39.31,3.86A45.12,45.12,0,0,1,73.53,19"/><path id="Registered" class="cls-1" d="M610.62,6.8h2.07c1.2,0,2.54.24,2.54,1.7,0,1.65-1.19,1.83-2.57,1.83h-2ZM608.3,17.51h2.33V12.12H612l3.24,5.39h2.38L614.29,12c2.06-.18,3.27-1.23,3.27-3.35C617.56,6,615.94,5,612.93,5h-4.64V17.51Zm4.25,4.86A11,11,0,1,0,601.46,11.3a11,11,0,0,0,11.09,11.07m0-2.15c-4.63,0-8.38-3.74-8.38-8.92s3.76-8.86,8.38-8.86,8.37,3.73,8.37,8.86-3.75,8.92-8.37,8.92"/></g></svg>